G75*
%MOIN*%
%OFA0B0*%
%FSLAX25Y25*%
%IPPOS*%
%LPD*%
%AMOC8*
5,1,8,0,0,1.08239X$1,22.5*
%
%ADD10C,0.14300*%
%ADD11C,0.50800*%
%ADD12C,0.05950*%
%ADD13OC8,0.06000*%
%ADD14C,0.06343*%
%ADD15C,0.06000*%
%ADD16C,0.06800*%
%ADD17R,0.05556X0.05556*%
%ADD18C,0.05556*%
%ADD19C,0.06737*%
%ADD20C,0.05200*%
%ADD21C,0.06600*%
%ADD22C,0.04369*%
%ADD23C,0.04762*%
%ADD24C,0.04800*%
D10*
X0032667Y0026800D03*
X0432667Y0026800D03*
X0432667Y0426800D03*
X0032667Y0426800D03*
D11*
X0232667Y0226800D03*
D12*
X0177509Y0216800D03*
X0157824Y0216800D03*
X0312824Y0071800D03*
X0292667Y0051643D03*
X0292667Y0031957D03*
X0332509Y0071800D03*
X0352824Y0046800D03*
X0372509Y0046800D03*
X0387824Y0081800D03*
X0407509Y0081800D03*
X0407667Y0111957D03*
X0407667Y0131643D03*
X0337667Y0121643D03*
X0337667Y0101957D03*
X0102667Y0416957D03*
X0102667Y0436643D03*
D13*
X0075167Y0421800D03*
X0067667Y0426800D03*
X0067667Y0416800D03*
X0127667Y0411800D03*
X0137667Y0411800D03*
X0147667Y0441800D03*
X0157667Y0441800D03*
X0167667Y0431800D03*
X0177667Y0431800D03*
X0167667Y0286800D03*
X0157667Y0286800D03*
X0137667Y0281800D03*
X0117667Y0281800D03*
X0117667Y0261800D03*
X0137667Y0261800D03*
X0137667Y0241800D03*
X0117667Y0241800D03*
X0092667Y0251800D03*
X0092667Y0271800D03*
X0072667Y0271800D03*
X0072667Y0251800D03*
X0027667Y0241800D03*
X0027667Y0261800D03*
X0032667Y0191800D03*
X0032667Y0171800D03*
X0042667Y0136800D03*
X0062667Y0136800D03*
X0077667Y0136800D03*
X0077667Y0126800D03*
X0077667Y0106800D03*
X0077667Y0096800D03*
X0077667Y0086800D03*
X0067667Y0086800D03*
X0052667Y0071800D03*
X0032667Y0071800D03*
X0077667Y0031800D03*
X0062667Y0021800D03*
X0062667Y0011800D03*
X0077667Y0011800D03*
X0097667Y0011800D03*
X0097667Y0031800D03*
X0122667Y0031800D03*
X0122667Y0011800D03*
X0182667Y0076800D03*
X0202667Y0076800D03*
X0197667Y0056800D03*
X0197667Y0036800D03*
X0217667Y0046800D03*
X0237667Y0046800D03*
X0247667Y0046800D03*
X0267667Y0046800D03*
X0267667Y0121800D03*
X0267667Y0141800D03*
X0247667Y0141800D03*
X0227667Y0136800D03*
X0227667Y0126800D03*
X0212667Y0126800D03*
X0212667Y0136800D03*
X0197667Y0106800D03*
X0177667Y0106800D03*
X0117667Y0111800D03*
X0117667Y0091800D03*
X0097667Y0091800D03*
X0097667Y0111800D03*
X0157667Y0181800D03*
X0177667Y0181800D03*
X0122667Y0186800D03*
X0122667Y0206800D03*
X0167667Y0241800D03*
X0175167Y0246800D03*
X0167667Y0251800D03*
X0167667Y0261800D03*
X0177667Y0261800D03*
X0277667Y0251800D03*
X0287667Y0251800D03*
X0292667Y0221800D03*
X0302667Y0221800D03*
X0347667Y0206800D03*
X0347667Y0186800D03*
X0367667Y0211800D03*
X0367667Y0221800D03*
X0397667Y0211800D03*
X0397667Y0191800D03*
X0382667Y0126800D03*
X0362667Y0126800D03*
X0247667Y0121800D03*
X0357667Y0276800D03*
X0377667Y0276800D03*
X0377667Y0296800D03*
X0357667Y0296800D03*
X0362667Y0316800D03*
X0362667Y0336800D03*
X0367667Y0346800D03*
X0377667Y0346800D03*
X0377667Y0356800D03*
X0367667Y0356800D03*
X0357667Y0356800D03*
X0357667Y0346800D03*
X0337667Y0346800D03*
X0337667Y0366800D03*
X0387667Y0336800D03*
X0397667Y0356800D03*
X0407667Y0356800D03*
X0427667Y0366800D03*
X0437667Y0366800D03*
X0417667Y0406800D03*
X0407667Y0406800D03*
X0387667Y0406800D03*
X0387667Y0426800D03*
X0387667Y0316800D03*
X0397667Y0296800D03*
X0397667Y0276800D03*
X0417667Y0271800D03*
X0417667Y0281800D03*
X0317667Y0281800D03*
X0307667Y0281800D03*
D14*
X0197667Y0421800D03*
X0197667Y0441800D03*
X0167667Y0441800D03*
X0157667Y0431800D03*
X0157667Y0421800D03*
X0167667Y0421800D03*
X0127667Y0421800D03*
X0127667Y0431800D03*
D15*
X0102667Y0239400D02*
X0102667Y0234200D01*
X0092667Y0234200D02*
X0092667Y0239400D01*
X0082667Y0239400D02*
X0082667Y0234200D01*
X0072667Y0234200D02*
X0072667Y0239400D01*
X0062667Y0239400D02*
X0062667Y0234200D01*
X0052667Y0234200D02*
X0052667Y0239400D01*
X0042667Y0239400D02*
X0042667Y0234200D01*
X0042667Y0209400D02*
X0042667Y0204200D01*
X0052667Y0204200D02*
X0052667Y0209400D01*
X0062667Y0209400D02*
X0062667Y0204200D01*
X0072667Y0204200D02*
X0072667Y0209400D01*
X0082667Y0209400D02*
X0082667Y0204200D01*
X0092667Y0204200D02*
X0092667Y0209400D01*
X0102667Y0209400D02*
X0102667Y0204200D01*
X0107667Y0179400D02*
X0107667Y0174200D01*
X0117667Y0174200D02*
X0117667Y0179400D01*
X0127667Y0179400D02*
X0127667Y0174200D01*
X0137667Y0174200D02*
X0137667Y0179400D01*
X0147667Y0179400D02*
X0147667Y0174200D01*
X0147667Y0149400D02*
X0147667Y0144200D01*
X0137667Y0144200D02*
X0137667Y0149400D01*
X0127667Y0149400D02*
X0127667Y0144200D01*
X0117667Y0144200D02*
X0117667Y0149400D01*
X0107667Y0149400D02*
X0107667Y0144200D01*
X0097667Y0144200D02*
X0097667Y0149400D01*
X0087667Y0149400D02*
X0087667Y0144200D01*
X0077667Y0144200D02*
X0077667Y0149400D01*
X0067667Y0149400D02*
X0067667Y0144200D01*
X0057667Y0144200D02*
X0057667Y0149400D01*
X0057667Y0174200D02*
X0057667Y0179400D01*
X0067667Y0179400D02*
X0067667Y0174200D01*
X0077667Y0174200D02*
X0077667Y0179400D01*
X0087667Y0179400D02*
X0087667Y0174200D01*
X0097667Y0174200D02*
X0097667Y0179400D01*
X0102667Y0074400D02*
X0102667Y0069200D01*
X0112667Y0069200D02*
X0112667Y0074400D01*
X0122667Y0074400D02*
X0122667Y0069200D01*
X0122667Y0044400D02*
X0122667Y0039200D01*
X0112667Y0039200D02*
X0112667Y0044400D01*
X0102667Y0044400D02*
X0102667Y0039200D01*
X0092667Y0039200D02*
X0092667Y0044400D01*
X0082667Y0044400D02*
X0082667Y0039200D01*
X0072667Y0039200D02*
X0072667Y0044400D01*
X0062667Y0044400D02*
X0062667Y0039200D01*
X0062667Y0069200D02*
X0062667Y0074400D01*
X0072667Y0074400D02*
X0072667Y0069200D01*
X0082667Y0069200D02*
X0082667Y0074400D01*
X0092667Y0074400D02*
X0092667Y0069200D01*
X0217667Y0074200D02*
X0217667Y0079400D01*
X0227667Y0079400D02*
X0227667Y0074200D01*
X0237667Y0074200D02*
X0237667Y0079400D01*
X0247667Y0079400D02*
X0247667Y0074200D01*
X0257667Y0074200D02*
X0257667Y0079400D01*
X0267667Y0079400D02*
X0267667Y0074200D01*
X0277667Y0074200D02*
X0277667Y0079400D01*
X0277667Y0104200D02*
X0277667Y0109400D01*
X0267667Y0109400D02*
X0267667Y0104200D01*
X0257667Y0104200D02*
X0257667Y0109400D01*
X0247667Y0109400D02*
X0247667Y0104200D01*
X0237667Y0104200D02*
X0237667Y0109400D01*
X0227667Y0109400D02*
X0227667Y0104200D01*
X0217667Y0104200D02*
X0217667Y0109400D01*
X0307667Y0144200D02*
X0307667Y0149400D01*
X0317667Y0149400D02*
X0317667Y0144200D01*
X0327667Y0144200D02*
X0327667Y0149400D01*
X0337667Y0149400D02*
X0337667Y0144200D01*
X0347667Y0144200D02*
X0347667Y0149400D01*
X0357667Y0149400D02*
X0357667Y0144200D01*
X0367667Y0144200D02*
X0367667Y0149400D01*
X0377667Y0149400D02*
X0377667Y0144200D01*
X0387667Y0144200D02*
X0387667Y0149400D01*
X0397667Y0149400D02*
X0397667Y0144200D01*
X0397667Y0174200D02*
X0397667Y0179400D01*
X0387667Y0179400D02*
X0387667Y0174200D01*
X0377667Y0174200D02*
X0377667Y0179400D01*
X0367667Y0179400D02*
X0367667Y0174200D01*
X0357667Y0174200D02*
X0357667Y0179400D01*
X0347667Y0179400D02*
X0347667Y0174200D01*
X0337667Y0174200D02*
X0337667Y0179400D01*
X0327667Y0179400D02*
X0327667Y0174200D01*
X0317667Y0174200D02*
X0317667Y0179400D01*
X0307667Y0179400D02*
X0307667Y0174200D01*
X0347667Y0229200D02*
X0347667Y0234400D01*
X0357667Y0234400D02*
X0357667Y0229200D01*
X0367667Y0229200D02*
X0367667Y0234400D01*
X0377667Y0234400D02*
X0377667Y0229200D01*
X0387667Y0229200D02*
X0387667Y0234400D01*
X0397667Y0234400D02*
X0397667Y0229200D01*
X0407667Y0229200D02*
X0407667Y0234400D01*
X0417667Y0234400D02*
X0417667Y0229200D01*
X0427667Y0229200D02*
X0427667Y0234400D01*
X0437667Y0234400D02*
X0437667Y0229200D01*
X0437667Y0259200D02*
X0437667Y0264400D01*
X0427667Y0264400D02*
X0427667Y0259200D01*
X0417667Y0259200D02*
X0417667Y0264400D01*
X0407667Y0264400D02*
X0407667Y0259200D01*
X0397667Y0259200D02*
X0397667Y0264400D01*
X0387667Y0264400D02*
X0387667Y0259200D01*
X0377667Y0259200D02*
X0377667Y0264400D01*
X0367667Y0264400D02*
X0367667Y0259200D01*
X0357667Y0259200D02*
X0357667Y0264400D01*
X0347667Y0264400D02*
X0347667Y0259200D01*
X0357667Y0364200D02*
X0357667Y0369400D01*
X0367667Y0369400D02*
X0367667Y0364200D01*
X0377667Y0364200D02*
X0377667Y0369400D01*
X0387667Y0369400D02*
X0387667Y0364200D01*
X0397667Y0364200D02*
X0397667Y0369400D01*
X0407667Y0369400D02*
X0407667Y0364200D01*
X0417667Y0364200D02*
X0417667Y0369400D01*
X0417667Y0394200D02*
X0417667Y0399400D01*
X0407667Y0399400D02*
X0407667Y0394200D01*
X0397667Y0394200D02*
X0397667Y0399400D01*
X0387667Y0399400D02*
X0387667Y0394200D01*
X0377667Y0394200D02*
X0377667Y0399400D01*
X0367667Y0399400D02*
X0367667Y0394200D01*
X0357667Y0394200D02*
X0357667Y0399400D01*
D16*
X0434667Y0141800D02*
X0440667Y0141800D01*
X0440667Y0131800D02*
X0434667Y0131800D01*
X0434667Y0121800D02*
X0440667Y0121800D01*
X0435667Y0081800D02*
X0429667Y0081800D01*
X0429667Y0071800D02*
X0435667Y0071800D01*
X0435667Y0061800D02*
X0429667Y0061800D01*
X0382667Y0019800D02*
X0382667Y0013800D01*
X0372667Y0013800D02*
X0372667Y0019800D01*
X0362667Y0019800D02*
X0362667Y0013800D01*
X0337667Y0013800D02*
X0337667Y0019800D01*
X0327667Y0019800D02*
X0327667Y0013800D01*
X0317667Y0013800D02*
X0317667Y0019800D01*
D17*
X0192667Y0281800D03*
D18*
X0192667Y0271800D03*
X0192667Y0261800D03*
X0192667Y0251800D03*
X0192667Y0241800D03*
X0192667Y0231800D03*
X0192667Y0221800D03*
X0192667Y0211800D03*
X0192667Y0201800D03*
X0192667Y0191800D03*
X0192667Y0181800D03*
X0192667Y0171800D03*
X0272667Y0171800D03*
X0272667Y0181800D03*
X0272667Y0191800D03*
X0272667Y0201800D03*
X0272667Y0211800D03*
X0272667Y0221800D03*
X0272667Y0231800D03*
X0272667Y0241800D03*
X0272667Y0251800D03*
X0272667Y0261800D03*
X0272667Y0271800D03*
X0272667Y0281800D03*
D19*
X0304698Y0126800D02*
X0310635Y0126800D01*
X0310635Y0116800D02*
X0304698Y0116800D01*
X0304698Y0106800D02*
X0310635Y0106800D01*
D20*
X0232667Y0026800D03*
X0212667Y0016800D03*
X0182667Y0026800D03*
D21*
X0182667Y0331800D03*
X0192667Y0331800D03*
X0202667Y0331800D03*
X0212667Y0331800D03*
X0222667Y0331800D03*
X0232667Y0331800D03*
X0242667Y0331800D03*
X0252667Y0331800D03*
X0252667Y0391800D03*
X0242667Y0391800D03*
X0232667Y0391800D03*
X0222667Y0391800D03*
X0212667Y0391800D03*
X0202667Y0391800D03*
X0192667Y0391800D03*
X0182667Y0391800D03*
X0172667Y0391800D03*
X0162667Y0391800D03*
X0152667Y0391800D03*
X0142667Y0391800D03*
X0132667Y0391800D03*
X0122667Y0391800D03*
X0112667Y0391800D03*
X0102667Y0391800D03*
X0092667Y0391800D03*
X0082667Y0391800D03*
X0072667Y0391800D03*
X0062667Y0391800D03*
X0052667Y0391800D03*
X0042667Y0391800D03*
X0032667Y0391800D03*
X0022667Y0391800D03*
X0022667Y0331800D03*
X0032667Y0331800D03*
X0042667Y0331800D03*
X0052667Y0331800D03*
X0062667Y0331800D03*
X0072667Y0331800D03*
X0082667Y0331800D03*
X0092667Y0331800D03*
X0102667Y0331800D03*
X0112667Y0331800D03*
X0122667Y0331800D03*
X0132667Y0331800D03*
X0142667Y0331800D03*
X0152667Y0331800D03*
X0162667Y0331800D03*
X0172667Y0331800D03*
D22*
X0117667Y0401800D03*
X0317667Y0291800D03*
X0328832Y0296800D03*
X0352667Y0286800D03*
X0202667Y0201800D03*
D23*
X0137667Y0216800D03*
X0162667Y0271800D03*
X0112667Y0341800D03*
X0077667Y0316800D03*
X0047667Y0304981D03*
X0037667Y0336800D03*
X0032667Y0346800D03*
X0042667Y0357262D03*
X0047667Y0361362D03*
X0022667Y0341800D03*
X0047667Y0401800D03*
X0102667Y0406800D03*
X0192667Y0401800D03*
X0257667Y0416800D03*
X0347667Y0401800D03*
X0357667Y0431800D03*
X0342667Y0321800D03*
X0387667Y0271800D03*
X0322667Y0241800D03*
X0307667Y0211800D03*
X0307667Y0191800D03*
X0272667Y0156800D03*
X0287667Y0151800D03*
X0382667Y0196800D03*
X0417667Y0176800D03*
X0451686Y0231800D03*
X0277667Y0266800D03*
X0270167Y0304300D03*
X0277667Y0321800D03*
X0157667Y0136800D03*
X0062667Y0166800D03*
D24*
X0143917Y0042425D03*
X0262042Y0090550D03*
X0277667Y0067425D03*
X0278917Y0133050D03*
X0303917Y0133050D03*
X0252042Y0186800D03*
X0307667Y0251800D03*
X0328917Y0234925D03*
X0363292Y0200550D03*
X0318917Y0193050D03*
M02*
