G75*
%MOIN*%
%OFA0B0*%
%FSLAX25Y25*%
%IPPOS*%
%LPD*%
%AMOC8*
5,1,8,0,0,1.08239X$1,22.5*
%
%ADD10C,0.05150*%
%ADD11OC8,0.05200*%
%ADD12C,0.05543*%
%ADD13C,0.05200*%
%ADD14C,0.06000*%
%ADD15R,0.04756X0.04756*%
%ADD16C,0.04756*%
%ADD17C,0.05937*%
%ADD18C,0.04400*%
%ADD19C,0.00500*%
%ADD20C,0.05800*%
%ADD21C,0.00400*%
%ADD22C,0.01200*%
%ADD23C,0.01600*%
%ADD24C,0.01000*%
%ADD25C,0.00800*%
%ADD26C,0.03569*%
%ADD27C,0.03962*%
%ADD28C,0.04000*%
%ADD29C,0.04000*%
D10*
X0157824Y0216800D03*
X0177509Y0216800D03*
X0312824Y0071800D03*
X0292667Y0051643D03*
X0292667Y0031957D03*
X0332509Y0071800D03*
X0352824Y0046800D03*
X0372509Y0046800D03*
X0387824Y0081800D03*
X0407509Y0081800D03*
X0407667Y0111957D03*
X0407667Y0131643D03*
X0337667Y0121643D03*
X0337667Y0101957D03*
X0102667Y0416957D03*
X0102667Y0436643D03*
D11*
X0062667Y0011800D03*
X0062667Y0021800D03*
X0077667Y0031800D03*
X0097667Y0031800D03*
X0097667Y0011800D03*
X0077667Y0011800D03*
X0122667Y0011800D03*
X0122667Y0031800D03*
X0077667Y0086800D03*
X0077667Y0096800D03*
X0077667Y0106800D03*
X0077667Y0126800D03*
X0077667Y0136800D03*
X0062667Y0136800D03*
X0042667Y0136800D03*
X0032667Y0171800D03*
X0032667Y0191800D03*
X0027667Y0241800D03*
X0027667Y0261800D03*
X0072667Y0251800D03*
X0072667Y0271800D03*
X0092667Y0271800D03*
X0092667Y0251800D03*
X0117667Y0241800D03*
X0137667Y0241800D03*
X0137667Y0261800D03*
X0117667Y0261800D03*
X0117667Y0281800D03*
X0137667Y0281800D03*
X0157667Y0286800D03*
X0167667Y0286800D03*
X0167667Y0261800D03*
X0177667Y0261800D03*
X0167667Y0251800D03*
X0175167Y0246800D03*
X0167667Y0241800D03*
X0122667Y0206800D03*
X0122667Y0186800D03*
X0157667Y0181800D03*
X0177667Y0181800D03*
X0212667Y0136800D03*
X0212667Y0126800D03*
X0227667Y0126800D03*
X0227667Y0136800D03*
X0247667Y0141800D03*
X0267667Y0141800D03*
X0267667Y0121800D03*
X0247667Y0121800D03*
X0202667Y0076800D03*
X0182667Y0076800D03*
X0197667Y0056800D03*
X0197667Y0036800D03*
X0217667Y0046800D03*
X0237667Y0046800D03*
X0247667Y0046800D03*
X0267667Y0046800D03*
X0197667Y0106800D03*
X0177667Y0106800D03*
X0117667Y0111800D03*
X0117667Y0091800D03*
X0097667Y0091800D03*
X0097667Y0111800D03*
X0067667Y0086800D03*
X0052667Y0071800D03*
X0032667Y0071800D03*
X0277667Y0251800D03*
X0287667Y0251800D03*
X0292667Y0221800D03*
X0302667Y0221800D03*
X0347667Y0206800D03*
X0347667Y0186800D03*
X0367667Y0211800D03*
X0367667Y0221800D03*
X0397667Y0211800D03*
X0397667Y0191800D03*
X0382667Y0126800D03*
X0362667Y0126800D03*
X0417667Y0271800D03*
X0417667Y0281800D03*
X0397667Y0276800D03*
X0397667Y0296800D03*
X0387667Y0316800D03*
X0377667Y0296800D03*
X0377667Y0276800D03*
X0357667Y0276800D03*
X0357667Y0296800D03*
X0362667Y0316800D03*
X0362667Y0336800D03*
X0367667Y0346800D03*
X0377667Y0346800D03*
X0377667Y0356800D03*
X0367667Y0356800D03*
X0357667Y0356800D03*
X0357667Y0346800D03*
X0337667Y0346800D03*
X0337667Y0366800D03*
X0387667Y0336800D03*
X0397667Y0356800D03*
X0407667Y0356800D03*
X0427667Y0366800D03*
X0437667Y0366800D03*
X0417667Y0406800D03*
X0407667Y0406800D03*
X0387667Y0406800D03*
X0387667Y0426800D03*
X0317667Y0281800D03*
X0307667Y0281800D03*
X0177667Y0431800D03*
X0167667Y0431800D03*
X0157667Y0441800D03*
X0147667Y0441800D03*
X0137667Y0411800D03*
X0127667Y0411800D03*
X0075167Y0421800D03*
X0067667Y0426800D03*
X0067667Y0416800D03*
D12*
X0127667Y0421800D03*
X0127667Y0431800D03*
X0157667Y0431800D03*
X0167667Y0441800D03*
X0167667Y0421800D03*
X0157667Y0421800D03*
X0197667Y0421800D03*
X0197667Y0441800D03*
D13*
X0357667Y0399400D02*
X0357667Y0394200D01*
X0367667Y0394200D02*
X0367667Y0399400D01*
X0377667Y0399400D02*
X0377667Y0394200D01*
X0387667Y0394200D02*
X0387667Y0399400D01*
X0397667Y0399400D02*
X0397667Y0394200D01*
X0407667Y0394200D02*
X0407667Y0399400D01*
X0417667Y0399400D02*
X0417667Y0394200D01*
X0417667Y0369400D02*
X0417667Y0364200D01*
X0407667Y0364200D02*
X0407667Y0369400D01*
X0397667Y0369400D02*
X0397667Y0364200D01*
X0387667Y0364200D02*
X0387667Y0369400D01*
X0377667Y0369400D02*
X0377667Y0364200D01*
X0367667Y0364200D02*
X0367667Y0369400D01*
X0357667Y0369400D02*
X0357667Y0364200D01*
X0357667Y0264400D02*
X0357667Y0259200D01*
X0367667Y0259200D02*
X0367667Y0264400D01*
X0377667Y0264400D02*
X0377667Y0259200D01*
X0387667Y0259200D02*
X0387667Y0264400D01*
X0397667Y0264400D02*
X0397667Y0259200D01*
X0407667Y0259200D02*
X0407667Y0264400D01*
X0417667Y0264400D02*
X0417667Y0259200D01*
X0427667Y0259200D02*
X0427667Y0264400D01*
X0437667Y0264400D02*
X0437667Y0259200D01*
X0437667Y0234400D02*
X0437667Y0229200D01*
X0427667Y0229200D02*
X0427667Y0234400D01*
X0417667Y0234400D02*
X0417667Y0229200D01*
X0407667Y0229200D02*
X0407667Y0234400D01*
X0397667Y0234400D02*
X0397667Y0229200D01*
X0387667Y0229200D02*
X0387667Y0234400D01*
X0377667Y0234400D02*
X0377667Y0229200D01*
X0367667Y0229200D02*
X0367667Y0234400D01*
X0357667Y0234400D02*
X0357667Y0229200D01*
X0347667Y0229200D02*
X0347667Y0234400D01*
X0347667Y0259200D02*
X0347667Y0264400D01*
X0347667Y0179400D02*
X0347667Y0174200D01*
X0357667Y0174200D02*
X0357667Y0179400D01*
X0367667Y0179400D02*
X0367667Y0174200D01*
X0377667Y0174200D02*
X0377667Y0179400D01*
X0387667Y0179400D02*
X0387667Y0174200D01*
X0397667Y0174200D02*
X0397667Y0179400D01*
X0397667Y0149400D02*
X0397667Y0144200D01*
X0387667Y0144200D02*
X0387667Y0149400D01*
X0377667Y0149400D02*
X0377667Y0144200D01*
X0367667Y0144200D02*
X0367667Y0149400D01*
X0357667Y0149400D02*
X0357667Y0144200D01*
X0347667Y0144200D02*
X0347667Y0149400D01*
X0337667Y0149400D02*
X0337667Y0144200D01*
X0327667Y0144200D02*
X0327667Y0149400D01*
X0317667Y0149400D02*
X0317667Y0144200D01*
X0307667Y0144200D02*
X0307667Y0149400D01*
X0307667Y0174200D02*
X0307667Y0179400D01*
X0317667Y0179400D02*
X0317667Y0174200D01*
X0327667Y0174200D02*
X0327667Y0179400D01*
X0337667Y0179400D02*
X0337667Y0174200D01*
X0277667Y0109400D02*
X0277667Y0104200D01*
X0267667Y0104200D02*
X0267667Y0109400D01*
X0257667Y0109400D02*
X0257667Y0104200D01*
X0247667Y0104200D02*
X0247667Y0109400D01*
X0237667Y0109400D02*
X0237667Y0104200D01*
X0227667Y0104200D02*
X0227667Y0109400D01*
X0217667Y0109400D02*
X0217667Y0104200D01*
X0217667Y0079400D02*
X0217667Y0074200D01*
X0227667Y0074200D02*
X0227667Y0079400D01*
X0237667Y0079400D02*
X0237667Y0074200D01*
X0247667Y0074200D02*
X0247667Y0079400D01*
X0257667Y0079400D02*
X0257667Y0074200D01*
X0267667Y0074200D02*
X0267667Y0079400D01*
X0277667Y0079400D02*
X0277667Y0074200D01*
X0147667Y0144200D02*
X0147667Y0149400D01*
X0137667Y0149400D02*
X0137667Y0144200D01*
X0127667Y0144200D02*
X0127667Y0149400D01*
X0117667Y0149400D02*
X0117667Y0144200D01*
X0107667Y0144200D02*
X0107667Y0149400D01*
X0097667Y0149400D02*
X0097667Y0144200D01*
X0087667Y0144200D02*
X0087667Y0149400D01*
X0077667Y0149400D02*
X0077667Y0144200D01*
X0067667Y0144200D02*
X0067667Y0149400D01*
X0057667Y0149400D02*
X0057667Y0144200D01*
X0057667Y0174200D02*
X0057667Y0179400D01*
X0067667Y0179400D02*
X0067667Y0174200D01*
X0077667Y0174200D02*
X0077667Y0179400D01*
X0087667Y0179400D02*
X0087667Y0174200D01*
X0097667Y0174200D02*
X0097667Y0179400D01*
X0107667Y0179400D02*
X0107667Y0174200D01*
X0117667Y0174200D02*
X0117667Y0179400D01*
X0127667Y0179400D02*
X0127667Y0174200D01*
X0137667Y0174200D02*
X0137667Y0179400D01*
X0147667Y0179400D02*
X0147667Y0174200D01*
X0102667Y0204200D02*
X0102667Y0209400D01*
X0092667Y0209400D02*
X0092667Y0204200D01*
X0082667Y0204200D02*
X0082667Y0209400D01*
X0072667Y0209400D02*
X0072667Y0204200D01*
X0062667Y0204200D02*
X0062667Y0209400D01*
X0052667Y0209400D02*
X0052667Y0204200D01*
X0042667Y0204200D02*
X0042667Y0209400D01*
X0042667Y0234200D02*
X0042667Y0239400D01*
X0052667Y0239400D02*
X0052667Y0234200D01*
X0062667Y0234200D02*
X0062667Y0239400D01*
X0072667Y0239400D02*
X0072667Y0234200D01*
X0082667Y0234200D02*
X0082667Y0239400D01*
X0092667Y0239400D02*
X0092667Y0234200D01*
X0102667Y0234200D02*
X0102667Y0239400D01*
X0102667Y0074400D02*
X0102667Y0069200D01*
X0112667Y0069200D02*
X0112667Y0074400D01*
X0122667Y0074400D02*
X0122667Y0069200D01*
X0122667Y0044400D02*
X0122667Y0039200D01*
X0112667Y0039200D02*
X0112667Y0044400D01*
X0102667Y0044400D02*
X0102667Y0039200D01*
X0092667Y0039200D02*
X0092667Y0044400D01*
X0082667Y0044400D02*
X0082667Y0039200D01*
X0072667Y0039200D02*
X0072667Y0044400D01*
X0062667Y0044400D02*
X0062667Y0039200D01*
X0062667Y0069200D02*
X0062667Y0074400D01*
X0072667Y0074400D02*
X0072667Y0069200D01*
X0082667Y0069200D02*
X0082667Y0074400D01*
X0092667Y0074400D02*
X0092667Y0069200D01*
D14*
X0317667Y0019800D02*
X0317667Y0013800D01*
X0327667Y0013800D02*
X0327667Y0019800D01*
X0337667Y0019800D02*
X0337667Y0013800D01*
X0362667Y0013800D02*
X0362667Y0019800D01*
X0372667Y0019800D02*
X0372667Y0013800D01*
X0382667Y0013800D02*
X0382667Y0019800D01*
X0429667Y0061800D02*
X0435667Y0061800D01*
X0435667Y0071800D02*
X0429667Y0071800D01*
X0429667Y0081800D02*
X0435667Y0081800D01*
X0434667Y0121800D02*
X0440667Y0121800D01*
X0440667Y0131800D02*
X0434667Y0131800D01*
X0434667Y0141800D02*
X0440667Y0141800D01*
D15*
X0192667Y0281800D03*
D16*
X0192667Y0271800D03*
X0192667Y0261800D03*
X0192667Y0251800D03*
X0192667Y0241800D03*
X0192667Y0231800D03*
X0192667Y0221800D03*
X0192667Y0211800D03*
X0192667Y0201800D03*
X0192667Y0191800D03*
X0192667Y0181800D03*
X0192667Y0171800D03*
X0272667Y0171800D03*
X0272667Y0181800D03*
X0272667Y0191800D03*
X0272667Y0201800D03*
X0272667Y0211800D03*
X0272667Y0221800D03*
X0272667Y0231800D03*
X0272667Y0241800D03*
X0272667Y0251800D03*
X0272667Y0261800D03*
X0272667Y0271800D03*
X0272667Y0281800D03*
D17*
X0304698Y0126800D02*
X0310635Y0126800D01*
X0310635Y0116800D02*
X0304698Y0116800D01*
X0304698Y0106800D02*
X0310635Y0106800D01*
D18*
X0232667Y0026800D03*
X0212667Y0016800D03*
X0182667Y0026800D03*
D19*
X0257667Y0326800D02*
X0017667Y0326800D01*
X0017667Y0351800D01*
X0007667Y0351800D01*
X0007667Y0371800D01*
X0017667Y0371800D01*
X0017667Y0396800D01*
X0257667Y0396800D01*
X0257667Y0326800D01*
X0017667Y0351800D02*
X0017667Y0371800D01*
D20*
X0022667Y0391800D03*
X0032667Y0391800D03*
X0042667Y0391800D03*
X0052667Y0391800D03*
X0062667Y0391800D03*
X0072667Y0391800D03*
X0082667Y0391800D03*
X0092667Y0391800D03*
X0102667Y0391800D03*
X0112667Y0391800D03*
X0122667Y0391800D03*
X0132667Y0391800D03*
X0142667Y0391800D03*
X0152667Y0391800D03*
X0162667Y0391800D03*
X0172667Y0391800D03*
X0182667Y0391800D03*
X0192667Y0391800D03*
X0202667Y0391800D03*
X0212667Y0391800D03*
X0222667Y0391800D03*
X0232667Y0391800D03*
X0242667Y0391800D03*
X0252667Y0391800D03*
X0252667Y0331800D03*
X0242667Y0331800D03*
X0232667Y0331800D03*
X0222667Y0331800D03*
X0212667Y0331800D03*
X0202667Y0331800D03*
X0192667Y0331800D03*
X0182667Y0331800D03*
X0172667Y0331800D03*
X0162667Y0331800D03*
X0152667Y0331800D03*
X0142667Y0331800D03*
X0132667Y0331800D03*
X0122667Y0331800D03*
X0112667Y0331800D03*
X0102667Y0331800D03*
X0092667Y0331800D03*
X0082667Y0331800D03*
X0072667Y0331800D03*
X0062667Y0331800D03*
X0052667Y0331800D03*
X0042667Y0331800D03*
X0032667Y0331800D03*
X0022667Y0331800D03*
D21*
X0006699Y0352000D02*
X0002863Y0352000D01*
X0002863Y0355069D02*
X0006699Y0355069D01*
X0007467Y0354302D01*
X0007467Y0352767D01*
X0006699Y0352000D01*
X0006699Y0356604D02*
X0007467Y0357371D01*
X0007467Y0358906D01*
X0006699Y0359673D01*
X0005932Y0359673D01*
X0005165Y0358906D01*
X0005165Y0357371D01*
X0004397Y0356604D01*
X0003630Y0356604D01*
X0002863Y0357371D01*
X0002863Y0358906D01*
X0003630Y0359673D01*
X0004397Y0361208D02*
X0002863Y0362742D01*
X0007467Y0362742D01*
X0007467Y0361208D02*
X0007467Y0364277D01*
X0008234Y0358139D02*
X0002095Y0358139D01*
X0262863Y0350069D02*
X0262863Y0347000D01*
X0262863Y0348535D02*
X0267467Y0348535D01*
X0266699Y0351604D02*
X0265165Y0351604D01*
X0264397Y0352371D01*
X0264397Y0353906D01*
X0265165Y0354673D01*
X0265932Y0354673D01*
X0265932Y0351604D01*
X0266699Y0351604D02*
X0267467Y0352371D01*
X0267467Y0353906D01*
X0266699Y0356208D02*
X0267467Y0356975D01*
X0267467Y0358510D01*
X0265932Y0359277D02*
X0265932Y0356208D01*
X0265165Y0356208D02*
X0264397Y0356975D01*
X0264397Y0358510D01*
X0265165Y0359277D01*
X0265932Y0359277D01*
X0264397Y0360812D02*
X0264397Y0363114D01*
X0265165Y0363881D01*
X0267467Y0363881D01*
X0267467Y0365416D02*
X0267467Y0367718D01*
X0266699Y0368485D01*
X0265932Y0367718D01*
X0265932Y0366183D01*
X0265165Y0365416D01*
X0264397Y0366183D01*
X0264397Y0368485D01*
X0264397Y0370020D02*
X0266699Y0370020D01*
X0267467Y0370787D01*
X0267467Y0373089D01*
X0268234Y0373089D02*
X0269001Y0372322D01*
X0269001Y0371554D01*
X0268234Y0373089D02*
X0264397Y0373089D01*
X0263630Y0379227D02*
X0262863Y0379995D01*
X0262863Y0381529D01*
X0263630Y0382297D01*
X0264397Y0382297D01*
X0265165Y0381529D01*
X0265932Y0382297D01*
X0266699Y0382297D01*
X0267467Y0381529D01*
X0267467Y0379995D01*
X0266699Y0379227D01*
X0265165Y0380762D02*
X0265165Y0381529D01*
X0266699Y0383831D02*
X0266699Y0384599D01*
X0267467Y0384599D01*
X0267467Y0383831D01*
X0266699Y0383831D01*
X0266699Y0386133D02*
X0267467Y0386901D01*
X0267467Y0388435D01*
X0266699Y0389203D01*
X0265932Y0389203D01*
X0265165Y0388435D01*
X0265165Y0386133D01*
X0266699Y0386133D01*
X0265165Y0386133D02*
X0263630Y0387668D01*
X0262863Y0389203D01*
X0264397Y0360812D02*
X0267467Y0360812D01*
X0266699Y0356208D02*
X0265165Y0356208D01*
D22*
X0197667Y0406800D02*
X0367667Y0406800D01*
X0371067Y0403400D01*
X0372667Y0401800D01*
X0377667Y0396800D01*
X0367667Y0396800D02*
X0362042Y0396800D01*
X0357667Y0396800D01*
X0387667Y0336800D02*
X0387667Y0322457D01*
X0383667Y0318457D01*
X0383667Y0315143D01*
X0387667Y0311143D01*
X0387667Y0271800D01*
X0387667Y0261800D01*
X0382667Y0256800D01*
X0382667Y0196800D01*
X0397667Y0176800D02*
X0397667Y0146800D01*
X0387667Y0146800D02*
X0387667Y0156800D01*
X0367667Y0176800D01*
X0337667Y0176800D02*
X0337667Y0146800D01*
X0317667Y0146800D02*
X0317667Y0176800D01*
X0307667Y0176800D02*
X0307667Y0146800D01*
X0285167Y0181800D02*
X0272667Y0181800D01*
X0285167Y0181800D02*
X0312667Y0209300D01*
X0312667Y0241800D01*
X0272667Y0281800D01*
X0307667Y0281800D01*
X0277667Y0251800D02*
X0272667Y0251800D01*
X0277667Y0251800D02*
X0277667Y0211800D01*
X0272667Y0211800D01*
X0322667Y0241800D02*
X0347667Y0241800D01*
X0367667Y0261800D01*
X0377667Y0261800D02*
X0377667Y0276800D01*
X0357667Y0276800D02*
X0357667Y0261800D01*
X0417667Y0261800D02*
X0417667Y0271800D01*
X0262667Y0086800D02*
X0267667Y0081800D01*
X0267667Y0076800D01*
X0277667Y0076800D01*
X0262667Y0086800D02*
X0212667Y0086800D01*
X0202667Y0076800D01*
X0122667Y0071800D02*
X0117667Y0071800D01*
X0117667Y0091800D01*
X0117667Y0071800D02*
X0112667Y0071800D01*
X0102667Y0071800D02*
X0102667Y0141800D01*
X0097667Y0146800D01*
X0087667Y0146800D02*
X0087667Y0056800D01*
X0102667Y0041800D01*
X0112667Y0041800D02*
X0122667Y0041800D01*
X0122667Y0031800D01*
X0087667Y0026800D02*
X0076667Y0015800D01*
X0076010Y0015800D01*
X0072010Y0011800D01*
X0062667Y0011800D01*
X0062667Y0021800D02*
X0062667Y0031800D01*
X0077667Y0031800D01*
X0081667Y0032800D02*
X0087667Y0026800D01*
X0081667Y0032800D02*
X0081667Y0033457D01*
X0079324Y0035800D01*
X0078667Y0035800D01*
X0072667Y0041800D01*
X0072667Y0063543D01*
X0076667Y0067543D01*
X0076667Y0075800D01*
X0082667Y0081800D01*
X0082667Y0121800D01*
X0077667Y0126800D01*
X0077667Y0136800D02*
X0077667Y0146800D01*
X0087667Y0176800D02*
X0082667Y0181800D01*
X0082667Y0206800D01*
X0087667Y0216800D02*
X0077667Y0226800D01*
X0077667Y0256800D01*
X0062667Y0256800D01*
X0062667Y0236800D01*
X0057667Y0241800D02*
X0057667Y0281800D01*
X0067667Y0291800D01*
X0142667Y0291800D01*
X0162667Y0271800D01*
X0102667Y0236800D02*
X0092667Y0236800D01*
X0092667Y0251800D01*
X0087667Y0216800D02*
X0087667Y0186800D01*
X0097667Y0176800D01*
X0052667Y0206800D02*
X0042667Y0206800D01*
X0042667Y0201800D01*
X0032667Y0191800D01*
X0032667Y0236800D02*
X0042667Y0236800D01*
X0052667Y0236800D01*
X0057667Y0241800D01*
X0032667Y0236800D02*
X0027667Y0241800D01*
X0077667Y0096800D02*
X0077667Y0086800D01*
X0072667Y0081800D01*
X0072667Y0071800D01*
X0067667Y0076800D02*
X0067667Y0086800D01*
X0067667Y0076800D02*
X0062667Y0071800D01*
X0052667Y0071800D01*
X0062667Y0041800D02*
X0062667Y0031800D01*
X0192667Y0401800D02*
X0197667Y0406800D01*
X0102667Y0416957D02*
X0080009Y0416957D01*
X0075167Y0421800D01*
D23*
X0067667Y0416800D02*
X0062667Y0416800D01*
X0047667Y0401800D01*
X0137667Y0281800D02*
X0137667Y0261800D01*
X0137667Y0241800D01*
X0167667Y0241800D01*
X0177667Y0221800D01*
X0192667Y0221800D01*
X0177667Y0221800D02*
X0177509Y0216800D01*
X0177667Y0181800D01*
X0177667Y0146800D01*
X0147667Y0116800D01*
X0147667Y0026800D01*
X0102667Y0026800D01*
X0097667Y0031800D01*
X0092667Y0041800D01*
X0092667Y0071800D02*
X0097667Y0076800D01*
X0097667Y0091800D01*
X0062667Y0136800D02*
X0067667Y0141800D01*
X0067667Y0146800D01*
X0067667Y0156800D01*
X0107667Y0156800D01*
X0117667Y0146800D01*
X0147667Y0116800D01*
X0197667Y0106800D02*
X0217667Y0106800D01*
X0227667Y0106800D02*
X0227667Y0126800D01*
X0212667Y0126800D01*
X0247667Y0126800D02*
X0247667Y0121800D01*
X0247667Y0106800D01*
X0247667Y0126800D02*
X0257667Y0136800D01*
X0337667Y0136800D01*
X0347667Y0146800D01*
X0362824Y0131643D01*
X0362667Y0131485D01*
X0362667Y0126800D01*
X0362824Y0131643D02*
X0407667Y0131643D01*
X0407667Y0181800D01*
X0397667Y0191800D01*
X0387667Y0201800D01*
X0387667Y0231800D01*
X0392667Y0236800D01*
X0392667Y0391800D01*
X0387667Y0396800D01*
X0387667Y0406800D01*
X0387667Y0366800D02*
X0387667Y0336800D01*
X0407667Y0356800D02*
X0407667Y0271800D01*
X0412667Y0266800D01*
X0412667Y0236800D01*
X0417667Y0231800D01*
X0367667Y0231800D02*
X0367667Y0221800D01*
X0347667Y0186800D02*
X0347667Y0176800D01*
X0332667Y0126800D02*
X0307667Y0126800D01*
X0307667Y0106800D02*
X0332509Y0081957D01*
X0332509Y0071800D01*
X0352824Y0051485D01*
X0352824Y0046800D01*
X0292667Y0051643D02*
X0292667Y0051800D01*
X0247667Y0071800D02*
X0247667Y0076800D01*
X0217667Y0046800D02*
X0212667Y0041800D01*
X0212667Y0016800D01*
X0267667Y0106800D02*
X0277667Y0106800D01*
X0267667Y0106800D02*
X0267667Y0121800D01*
X0332667Y0126800D02*
X0337667Y0121800D01*
X0337667Y0121643D01*
X0107667Y0176800D02*
X0097667Y0186800D01*
X0097667Y0221800D01*
X0082667Y0236800D01*
X0072667Y0236800D02*
X0072667Y0251800D01*
X0072667Y0236800D02*
X0067667Y0231800D01*
X0067667Y0176800D01*
X0067667Y0156800D01*
D24*
X0077667Y0171800D02*
X0084551Y0171800D01*
X0086051Y0170300D01*
X0136051Y0170300D01*
X0157667Y0148685D01*
X0157667Y0136800D01*
X0196417Y0137425D02*
X0196417Y0248050D01*
X0192667Y0251800D01*
X0188917Y0255550D01*
X0188917Y0284925D01*
X0213917Y0312425D01*
X0367042Y0312425D01*
X0367042Y0326800D01*
X0358292Y0335550D01*
X0358292Y0341800D01*
X0362042Y0345550D01*
X0362042Y0396800D01*
X0372042Y0308050D02*
X0372042Y0244300D01*
X0363292Y0235550D01*
X0363292Y0216175D01*
X0367667Y0211800D01*
X0373767Y0201800D02*
X0368767Y0196800D01*
X0305167Y0196800D01*
X0292667Y0184300D01*
X0292667Y0166800D01*
X0287667Y0161800D01*
X0277667Y0161800D01*
X0272667Y0156800D01*
X0270792Y0146175D02*
X0237667Y0146175D01*
X0227667Y0136800D01*
X0227667Y0151800D02*
X0212667Y0136800D01*
X0227667Y0151800D02*
X0287667Y0151800D01*
X0277042Y0139925D02*
X0270792Y0146175D01*
X0277042Y0139925D02*
X0330792Y0139925D01*
X0337667Y0146800D01*
X0342042Y0169925D02*
X0342042Y0180550D01*
X0329542Y0193050D01*
X0318917Y0193050D01*
X0342042Y0169925D02*
X0354542Y0169925D01*
X0377667Y0146800D01*
X0403292Y0113675D02*
X0427042Y0137425D01*
X0445167Y0137425D01*
X0445167Y0143675D01*
X0418917Y0169925D01*
X0410167Y0169925D01*
X0410167Y0221175D01*
X0403292Y0228050D01*
X0403292Y0257425D01*
X0407667Y0261800D01*
X0377667Y0261800D02*
X0377667Y0239915D01*
X0373767Y0236015D01*
X0373767Y0201800D01*
X0363292Y0200550D02*
X0328917Y0234925D01*
X0307667Y0251800D02*
X0317667Y0261800D01*
X0317667Y0281800D01*
X0317667Y0291800D02*
X0272667Y0291800D01*
X0267667Y0286800D01*
X0267667Y0211800D01*
X0247667Y0191800D01*
X0212667Y0191800D01*
X0202667Y0201800D01*
X0252042Y0186800D02*
X0273292Y0208050D01*
X0292667Y0208050D01*
X0292667Y0221800D01*
X0352667Y0286800D02*
X0342667Y0296800D01*
X0328832Y0296800D01*
X0372042Y0308050D02*
X0226417Y0308050D01*
X0192667Y0271800D01*
X0122667Y0206800D02*
X0102667Y0206800D01*
X0077667Y0176800D02*
X0077667Y0171800D01*
X0122667Y0071800D02*
X0122667Y0063675D01*
X0143917Y0042425D01*
X0222042Y0090550D02*
X0222042Y0111800D01*
X0196417Y0137425D01*
X0222042Y0090550D02*
X0262042Y0090550D01*
X0277667Y0106800D02*
X0292667Y0106800D01*
X0295792Y0106800D01*
X0301417Y0112425D01*
X0403292Y0112425D01*
X0403292Y0113675D01*
X0303917Y0133050D02*
X0278917Y0133050D01*
X0292667Y0106800D02*
X0295167Y0106800D01*
X0277667Y0067425D02*
X0277667Y0066800D01*
X0102667Y0406800D02*
X0102667Y0416957D01*
D25*
X0117667Y0401800D02*
X0127667Y0411800D01*
X0127667Y0421800D01*
X0127667Y0431800D01*
X0137667Y0411800D02*
X0417667Y0411800D01*
X0417667Y0406800D01*
X0417667Y0396800D01*
X0407667Y0396800D02*
X0407667Y0406800D01*
X0407667Y0396800D02*
X0437667Y0366800D01*
X0427667Y0366800D02*
X0417667Y0366800D01*
X0407667Y0366800D01*
X0397667Y0366800D02*
X0397667Y0356800D01*
X0377667Y0356800D02*
X0377667Y0366800D01*
X0377667Y0356800D02*
X0372667Y0356800D01*
X0372667Y0341800D01*
X0367667Y0336800D01*
X0362667Y0336800D01*
X0367667Y0346800D02*
X0367667Y0356800D01*
X0367667Y0366800D01*
X0357667Y0366800D02*
X0357667Y0356800D01*
X0357667Y0366800D02*
X0337667Y0366800D01*
X0347667Y0401800D02*
X0266866Y0320999D01*
X0081866Y0320999D01*
X0077667Y0316800D01*
X0047667Y0304981D02*
X0017667Y0274981D01*
X0017667Y0176800D01*
X0027667Y0166800D01*
X0062667Y0166800D01*
X0137667Y0176800D02*
X0137667Y0216800D01*
X0167667Y0251800D02*
X0167667Y0261800D01*
X0167667Y0286800D01*
X0197667Y0316800D01*
X0362667Y0316800D01*
X0342667Y0321800D02*
X0277667Y0321800D01*
X0270167Y0304300D02*
X0315167Y0304300D01*
X0325848Y0293619D01*
X0325848Y0250640D01*
X0319486Y0244278D01*
X0319486Y0239322D01*
X0320189Y0238619D01*
X0330848Y0238619D01*
X0337667Y0231800D01*
X0347667Y0231800D01*
X0307667Y0239254D02*
X0307667Y0211800D01*
X0307667Y0191800D02*
X0307667Y0176800D01*
X0307667Y0239254D02*
X0280121Y0266800D01*
X0277667Y0266800D01*
X0202667Y0331800D02*
X0174686Y0359781D01*
X0049248Y0359781D01*
X0047667Y0361362D01*
X0042667Y0357262D02*
X0044248Y0355681D01*
X0168786Y0355681D01*
X0192667Y0331800D01*
X0182667Y0331800D02*
X0162886Y0351581D01*
X0037886Y0351581D01*
X0032667Y0346800D01*
X0035404Y0341800D02*
X0041085Y0347481D01*
X0156986Y0347481D01*
X0172667Y0331800D01*
X0112667Y0341800D02*
X0042667Y0341800D01*
X0037667Y0336800D01*
X0035404Y0341800D02*
X0022667Y0341800D01*
X0157667Y0421800D02*
X0167667Y0421800D01*
X0167667Y0431800D01*
X0177667Y0431800D02*
X0197667Y0431800D01*
X0197667Y0441800D01*
X0167667Y0441800D02*
X0157667Y0441800D01*
X0157667Y0431800D01*
X0257667Y0416800D02*
X0332667Y0416800D01*
X0352667Y0436800D01*
X0405167Y0436800D01*
X0451686Y0390281D01*
X0451686Y0231800D01*
X0417667Y0176800D02*
X0417667Y0171800D01*
X0447667Y0171800D01*
X0447667Y0386800D01*
X0402667Y0431800D01*
X0357667Y0431800D01*
X0177667Y0261800D02*
X0175167Y0246800D01*
X0192667Y0231800D01*
D26*
X0202667Y0201800D03*
X0317667Y0291800D03*
X0328832Y0296800D03*
X0352667Y0286800D03*
X0117667Y0401800D03*
D27*
X0102667Y0406800D03*
X0047667Y0401800D03*
X0047667Y0361362D03*
X0042667Y0357262D03*
X0032667Y0346800D03*
X0037667Y0336800D03*
X0022667Y0341800D03*
X0047667Y0304981D03*
X0077667Y0316800D03*
X0112667Y0341800D03*
X0162667Y0271800D03*
X0137667Y0216800D03*
X0062667Y0166800D03*
X0157667Y0136800D03*
X0272667Y0156800D03*
X0287667Y0151800D03*
X0307667Y0191800D03*
X0307667Y0211800D03*
X0322667Y0241800D03*
X0277667Y0266800D03*
X0270167Y0304300D03*
X0277667Y0321800D03*
X0342667Y0321800D03*
X0387667Y0271800D03*
X0451686Y0231800D03*
X0417667Y0176800D03*
X0382667Y0196800D03*
X0347667Y0401800D03*
X0357667Y0431800D03*
X0257667Y0416800D03*
X0192667Y0401800D03*
D28*
X0307667Y0251800D03*
X0328917Y0234925D03*
X0363292Y0200550D03*
X0318917Y0193050D03*
X0303917Y0133050D03*
X0278917Y0133050D03*
X0262042Y0090550D03*
X0277667Y0067425D03*
X0252042Y0186800D03*
X0143917Y0042425D03*
D29*
X0147667Y0026800D02*
X0182667Y0026800D01*
X0182667Y0041800D01*
X0197667Y0056800D01*
X0207667Y0066800D01*
X0247667Y0066800D01*
X0247667Y0071800D01*
X0247667Y0066800D02*
X0277667Y0066800D01*
X0292667Y0051800D01*
X0292667Y0051643D02*
X0317667Y0026643D01*
X0317667Y0016800D01*
X0337667Y0016800D02*
X0352667Y0016800D01*
X0352824Y0016957D01*
X0352824Y0046800D01*
X0352667Y0016800D02*
X0362667Y0016800D01*
X0407509Y0081800D02*
X0432667Y0081800D01*
X0432667Y0115598D01*
X0428867Y0119398D01*
X0428867Y0124202D01*
X0432264Y0127600D01*
X0433467Y0127600D01*
X0437667Y0131800D01*
X0437667Y0141800D02*
X0417824Y0141800D01*
X0407667Y0131643D01*
M02*
